<svg width="24" height="24" viewBox="0 0 24 24" fill="none" xmlns="http://www.w3.org/2000/svg">
<g filter="url(#filter0_d_6_8)">
<mask id="mask0_6_8" style="mask-type:alpha" maskUnits="userSpaceOnUse" x="4" y="0" width="16" height="16">
<g clip-path="url(#clip0_6_8)">
<path d="M16.6451 9.91143C16.3175 9.57036 15.9224 9.38801 15.5037 9.38801C15.0883 9.38801 14.6898 9.56699 14.3488 9.90806L13.2817 10.9718C13.1939 10.9245 13.1061 10.8806 13.0216 10.8367C12.9001 10.7759 12.7853 10.7185 12.6873 10.6577C11.6878 10.0229 10.7794 9.19553 9.90813 8.12505C9.48602 7.5915 9.20236 7.14237 8.99636 6.68648C9.27327 6.43322 9.52992 6.16982 9.77981 5.91655C9.87436 5.82199 9.96891 5.72406 10.0635 5.62951C10.7726 4.92036 10.7726 4.00184 10.0635 3.29269L9.14157 2.37079C9.03689 2.26611 8.92883 2.15805 8.82752 2.04999C8.6249 1.84062 8.41216 1.6245 8.19266 1.42188C7.8651 1.0977 7.47338 0.925476 7.06139 0.925476C6.64941 0.925476 6.25094 1.0977 5.91325 1.42188C5.90987 1.42526 5.90987 1.42526 5.90649 1.42864L4.75834 2.58692C4.3261 3.01916 4.07958 3.54596 4.02555 4.15718C3.94451 5.14324 4.23492 6.06176 4.4578 6.66284C5.00486 8.13855 5.82207 9.5062 7.04113 10.9718C8.52022 12.7379 10.2999 14.1326 12.3328 15.1152C13.1094 15.4833 14.1462 15.919 15.3044 15.9932C15.3753 15.9966 15.4496 16 15.5172 16C16.2972 16 16.9524 15.7197 17.4657 15.1625C17.469 15.1558 17.4758 15.1524 17.4792 15.1456C17.6548 14.9329 17.8574 14.7404 18.0701 14.5344C18.2153 14.396 18.3639 14.2508 18.5091 14.0988C18.8434 13.751 19.019 13.3457 19.019 12.9304C19.019 12.5117 18.8401 12.1098 18.499 11.7721L16.6451 9.91143ZM17.854 13.4673C17.8506 13.4673 17.8506 13.4707 17.854 13.4673C17.7223 13.6091 17.5872 13.7375 17.442 13.8793C17.2225 14.0887 16.9996 14.3082 16.7903 14.5547C16.4492 14.9194 16.0474 15.0916 15.5206 15.0916C15.4699 15.0916 15.4159 15.0916 15.3652 15.0882C14.3623 15.0241 13.4302 14.6324 12.7312 14.298C10.8199 13.3728 9.14157 12.0591 7.74691 10.3943C6.59538 9.00642 5.82545 7.72319 5.31553 6.34542C5.00148 5.50457 4.88667 4.84944 4.93732 4.23147C4.97109 3.83637 5.12305 3.50881 5.40333 3.22853L6.55486 2.077C6.72033 1.92166 6.89593 1.83724 7.06815 1.83724C7.28089 1.83724 7.45312 1.96556 7.56118 2.07363C7.56455 2.077 7.56793 2.08038 7.57131 2.08376C7.7773 2.27624 7.97316 2.47548 8.17915 2.68822C8.28384 2.79628 8.3919 2.90435 8.49996 3.01578L9.42185 3.93768C9.77981 4.29563 9.77981 4.62657 9.42185 4.98452C9.32392 5.08245 9.22937 5.18038 9.13144 5.27493C8.84778 5.56535 8.57763 5.8355 8.28384 6.0989C8.27708 6.10565 8.27033 6.10903 8.26695 6.11579C7.97654 6.4062 8.03057 6.68986 8.09135 6.88234C8.09473 6.89247 8.09811 6.90261 8.10148 6.91274C8.34124 7.49356 8.67893 8.04062 9.19222 8.69237L9.1956 8.69574C10.1276 9.84389 11.1103 10.7388 12.1943 11.4243C12.3328 11.5121 12.4746 11.583 12.6097 11.6505C12.7312 11.7113 12.846 11.7687 12.944 11.8295C12.9575 11.8363 12.971 11.8464 12.9845 11.8532C13.0993 11.9106 13.2074 11.9376 13.3188 11.9376C13.5991 11.9376 13.7747 11.762 13.8321 11.7046L14.987 10.5497C15.1018 10.4349 15.2842 10.2964 15.4969 10.2964C15.7063 10.2964 15.8785 10.4281 15.9832 10.5429C15.9866 10.5463 15.9866 10.5463 15.9899 10.5497L17.8506 12.4103C18.1984 12.7548 18.1984 13.1094 17.854 13.4673Z" fill="black"/>
<path d="M12.6468 3.80597C13.5315 3.95456 14.3352 4.37329 14.9769 5.01491C15.6185 5.65652 16.0338 6.46022 16.1858 7.34497C16.2229 7.56785 16.4154 7.72319 16.6349 7.72319C16.6619 7.72319 16.6856 7.71981 16.7126 7.71643C16.9625 7.67591 17.128 7.43953 17.0874 7.18964C16.9051 6.11916 16.3985 5.14323 15.6252 4.36992C14.8519 3.5966 13.876 3.09007 12.8055 2.90771C12.5556 2.86719 12.3226 3.03266 12.2787 3.27917C12.2348 3.52569 12.3969 3.76545 12.6468 3.80597Z" fill="black"/>
<path d="M19.9814 7.05794C19.6809 5.29519 18.8502 3.69116 17.5737 2.41469C16.2972 1.13821 14.6932 0.307495 12.9305 0.00695018C12.6839 -0.0369496 12.4509 0.131896 12.407 0.37841C12.3665 0.628302 12.532 0.861308 12.7819 0.905208C14.3555 1.17198 15.7907 1.91828 16.9321 3.0563C18.0735 4.1977 18.8164 5.63288 19.0832 7.20652C19.1203 7.4294 19.3128 7.58474 19.5323 7.58474C19.5593 7.58474 19.583 7.58136 19.61 7.57798C19.8565 7.54084 20.0253 7.30445 19.9814 7.05794Z" fill="black"/>
</g>
</mask>
<g mask="url(#mask0_6_8)">
<rect x="-2.30304" y="-56.7273" width="90.6667" height="83.8788" fill="#F7C334"/>
</g>
</g>
<defs>
<filter id="filter0_d_6_8" x="0" y="0" width="24" height="24" filterUnits="userSpaceOnUse" color-interpolation-filters="sRGB">
<feFlood flood-opacity="0" result="BackgroundImageFix"/>
<feColorMatrix in="SourceAlpha" type="matrix" values="0 0 0 0 0 0 0 0 0 0 0 0 0 0 0 0 0 0 127 0" result="hardAlpha"/>
<feOffset dy="4"/>
<feGaussianBlur stdDeviation="2"/>
<feComposite in2="hardAlpha" operator="out"/>
<feColorMatrix type="matrix" values="0 0 0 0 0 0 0 0 0 0 0 0 0 0 0 0 0 0 0.25 0"/>
<feBlend mode="normal" in2="BackgroundImageFix" result="effect1_dropShadow_6_8"/>
<feBlend mode="normal" in="SourceGraphic" in2="effect1_dropShadow_6_8" result="shape"/>
</filter>
<clipPath id="clip0_6_8">
<rect width="16" height="16" fill="white" transform="translate(4)"/>
</clipPath>
</defs>
</svg>
